<?xml version="1.0" encoding="UTF-8"?>
<svg id="Layer_1" data-name="Layer 1" xmlns="http://www.w3.org/2000/svg" viewBox="0 0 126.43 69.7">
  <defs>
    <style>
      .cls-1 {
        fill: #ed2224;
      }
    </style>
  </defs>
  <g>
    <path class="cls-1" d="M16.97,29.57c2,.6,3.73,1.3,5.2,2.09,1.47.8,2.85,1.85,4.15,3.14,1.3,1.3,2.27,2.9,2.91,4.82.65,1.92.95,4.13.9,6.62l-.15,3.74-7.4-.23.07-3.66c.05-1.84-.16-3.36-.63-4.56-.47-1.2-1.39-2.21-2.73-3.03-1.34-.82-2.89-1.46-4.64-1.91-1.75-.45-4.14-.95-7.17-1.49.1,5.88.27,10.94.52,15.18l-7.4.45c-.4-4.93-.6-13.12-.6-24.56S.37,6.05,1.12.11l7.33.97c-.64,5.43-1,13.78-1.05,25.05,2.34-.4,4.62-1.72,6.84-3.96,2.21-2.24,4.05-4.88,5.49-7.92,1.44-3.04,2.44-6.13,2.99-9.27l.68-3.66,7.25,1.34-.6,3.66c-.8,4.49-2.35,8.85-4.67,13.08-2.32,4.24-5.12,7.63-8.41,10.17Z"/>
    <path class="cls-1" d="M57.95,21.27c2.56,3.56,4.06,7.19,4.52,10.89s.68,6.36.68,7.97c0,3.75-.55,7.23-1.64,10.46l-6.69-2.21c.8-2.42,1.21-5.12,1.21-8.11,0-1.28-.17-3.42-.5-6.44-.33-3.01-1.45-5.85-3.35-8.5-1.42-1.95-3.03-2.92-4.83-2.92-1.71,0-2.94.38-3.7,1.14-.76.8-1.31,2.12-1.67,3.95-.35,1.83-.53,3.82-.53,5.98s.02,4.47.07,6.94c.05,1.23.08,2.44.08,3.63s-.03,2.23-.08,3.27c.05.1.08.17.08.21h-.08v2.06l-7.04-.21v-1.92c-.28-5.69-.45-12.21-.5-19.56v-3.2c0-.76.05-1.87.14-3.34.1-1.47.23-2.68.39-3.63.16-.95.41-2.11.75-3.49.33-1.38.75-2.54,1.24-3.49s1.12-2,1.89-3.17c.75-1.16,1.63-2.16,2.63-2.99,1-.83,2.17-1.64,3.52-2.42,1.35-.78,2.84-1.46,4.45-2.03l2.21,6.76c-2.65.85-4.71,2.06-6.15,3.63-1.45,1.57-2.48,3.51-3.09,5.83,1.66-.71,3.46-1.07,5.41-1.07,4.22,0,7.75,1.99,10.6,5.98Z"/>
    <path class="cls-1" d="M124.64,12.66c-.05,2.74-.07,5.48-.07,8.21,0,9.63.28,19.4.83,29.3l-7.47.39c-.56-10.05-.83-19.95-.83-29.69,0-2.79.02-5.58.07-8.37l7.47.16Z"/>
    <g>
      <path class="cls-1" d="M101.62,0c.28,0,2.87-.02,4.53,2.11,1.25,1.62,1.48,3.85.6,5.76-.9.33-1.79.67-2.68,1,.92.49,1.84.99,2.77,1.48.05.32.12.94.04,1.74-.04.43-.17,1.56-.85,2.74-.92,1.59-2.33,2.33-2.93,2.6.06-.12.76-1.5.16-2.74-.08-.16-.38-.79-1.01-1.15-.1-.06-.23-.12-.49-.24,0,0-.55-.25-1.07-.45-.7-.26-1.73-.55-2.51-.7-1.33-.26-4.59-.65-8.5.33-1.18.3-2.08.63-2.59.82-.47.18-2.39.91-4.27,2.07-1.27.78-4.45,2.74-6.81,6.63-.87,1.43-2.25,3.77-2.42,7.06-.11,2.13.32,3.87.65,4.88.25.76.88,2.47,2.22,4.18,3.37,4.29,8.47,5.09,9.7,5.29,3.05.48,5.44-.01,6.64-.28,3.44-.75,5.83-2.26,6.8-2.93,1.04-.72,1.74-1.35,2.21-1.79,1.66-1.53,3.84-3.53,4.77-6.62.43-1.45.78-2.6.34-3.87-1.15-3.32-6.49-3.96-8.13-4.16,0,0-4.32-.52-8.8,1.45-.5.22-1,.49-1.01.5h0c-1.49.85-2.3,1.81-2.3,1.81-.38.45-.83.97-1.01,1.79-.06.26-.14.66-.01,1.15.19.76.75,1.19.96,1.35.26.2.55.34.95.47,1.28.4,2.46.2,3.19.07.64-.11,1.53-.33,2.55-.79.82,1.62,1.64,3.24,2.46,4.86-.84.39-1.67.77-2.51,1.16-1.3.53-3.84,1.35-6.78.78-1.46-.28-2.49-.79-2.81-.95-.75-.39-2.11-1.11-3.2-2.67-.83-1.19-1.13-2.32-1.23-2.79-.44-1.99.05-3.59.3-4.37.47-1.5,1.21-2.5,1.73-3.21.23-.31.86-1.14,1.88-2.07.43-.39,2-1.77,4.65-2.92,2.97-1.29,5.53-1.51,7.1-1.63,1.85-.15,4.97-.11,8.65.78,2.95.72,5.27,1.88,6.97,3.48.56.52,1.05,1.1,1.47,1.73.42.64.82,1.45,1.18,2.42.36.98.52,2.15.47,3.5,0,.15-.02.36-.04.62,0,0-.15,1.77-.85,3.63-1.81,4.83-6.3,8.87-6.3,8.87-4.55,4.1-9.28,5.52-11.28,6.1-2.16.63-5.28,1.51-9.4,1.14-3.83-.34-6.63-1.6-7.8-2.18-1.08-.53-4.59-2.31-7.17-5.76-.92-1.22-1.58-2.47-1.72-2.74-.97-1.85-1.43-3.39-1.57-3.91-.21-.74-.62-2.4-.7-4.57-.02-.69-.05-2.23.28-4.17.7-4.13,2.48-7.01,3.27-8.25.58-.92,1.51-2.25,2.85-3.67.47-.5,1.65-1.71,3.42-3,0,0,3.33-2.43,7.94-3.98.64-.21,1.3-.41,1.3-.41.86-.25,1.68-.46,2.42-.62,2.06-.44,4.42-.67,4.64-.69,6.32-.6,7.66-.7,8.4-1.13.17-.1.31-.23.32-.24.15-.13,1.27-1.11,1.16-2.61-.09-1.23-.96-1.97-1.13-2.11Z"/>
      <ellipse class="cls-1" cx="100.64" cy="30.55" rx="3.48" ry="3.42"/>
    </g>
    <ellipse class="cls-1" cx="121.3" cy="5.12" rx="5.14" ry="5.04"/>
  </g>
  <g>
    <path class="cls-1" d="M26.62,55.74c.42,0,.77.17,1.07.52.29.35.57.96.83,1.83s.49,2,.69,3.36c.2,1.37.42,3.14.64,5.3l-1.59.16c-.47-4.67-.95-7.65-1.43-8.96-.14.53-.34,1.49-.59,2.87-.38,2.08-.69,3.45-.93,4.09-.24.65-.6.97-1.11.97-.42,0-.75-.24-1.01-.72s-.55-1.38-.88-2.71c-.04.04-.09.09-.14.13-.62.5-1.47.52-2.55.05-.14.67-.21,2.07-.21,4.18l-1.07.02-.51-.02c-.01-2.02.05-3.43.19-4.25.14-.81.4-1.34.78-1.57.33-.2.68-.21,1.04-.02.27.14.51.24.72.31.21.07.36.1.43.09.07-.01.13-.02.18-.03.07-.06.13-.18.16-.35.03-.17.01-.56-.06-1.17s-.24-1.38-.48-2.32c-.09-.33-.14-.56-.17-.7-.03-.13-.03-.27-.02-.41.02-.14.07-.26.17-.37.16-.21.38-.31.67-.3.43.02.75.31.98.87.22.56.56,1.8,1.01,3.71.32,1.34.56,2.29.72,2.87.13-.56.3-1.44.53-2.64.37-2.01.67-3.31.89-3.91.22-.6.57-.9,1.05-.9ZM18.62,66.85h-.8.8Z"/>
    <path class="cls-1" d="M37.39,65.93l.29.74-1.49.56-.29-.74c-.05-.16-.11-.34-.16-.53-.13.19-.25.35-.37.46-.47.46-1.01.69-1.62.69h-.08c-.7-.02-1.28-.28-1.73-.78-.22-.26-.41-.59-.56-.99-.15-.41-.25-.79-.31-1.16s-.09-.73-.1-1.08c0-.35,0-.59,0-.7,0-.37,0-.7.02-.98.02-.28.05-.7.09-1.27.04-.64.06-1.07.06-1.28h1.59c0,.25-.02.71-.06,1.39-.04.57-.07,1-.09,1.31s-.02.64-.02,1.02c0,.13,0,.37,0,.71,0,.35.06.71.15,1.1.1.38.24.68.42.88.15.16.35.25.59.26.2,0,.38-.08.53-.24.5-.49.87-1.59,1.09-3.28l.02-.1c.1-.78.14-1.57.14-2.37,0-.21,0-.43-.02-.66l1.59-.05c.01.21.02.43.02.66,0,.87-.05,1.74-.16,2.61v.61c0,.14,0,.33.02.58.01.25.05.66.13,1.23s.18,1.04.32,1.4Z"/>
    <path class="cls-1" d="M45.37,59.96c.47.67.57,1.41.29,2.21-.15.43-.4.8-.74,1.13-.35.33-.74.56-1.19.7-.62.17-1.2.26-1.75.26-.72,0-1.35-.15-1.89-.46-.25-.15-.46-.32-.66-.51s-.34-.38-.44-.58c-.1-.19-.18-.35-.23-.47-.05-.12-.09-.24-.11-.34-.16-.72-.03-1.4.38-2.05.41-.65,1-1.09,1.75-1.33.86-.27,1.72-.26,2.58,0,.85.27,1.53.76,2.02,1.45ZM45.09,66.54h-5.82v-1.59h5.82v1.59ZM42.23,56.51l-1.19,1.46-1.23-.99,1.67-2.05.75.61.75-.61,1.65,2.05-1.23.99-1.17-1.46ZM44.15,61.64c.11-.29.08-.54-.08-.75-.22-.31-.52-.55-.87-.73-.36-.18-.74-.26-1.15-.26-.28,0-.55.04-.82.13-.38.12-.67.32-.87.62s-.25.58-.18.87c.09.37.32.67.69.9.57.33,1.36.35,2.39.05.2-.05.38-.15.55-.3.16-.15.27-.32.34-.51Z"/>
    <path class="cls-1" d="M52.08,59.67c.22.26.41.57.54.95.14.38.24.74.3,1.08.06.34.09.68.1,1,0,.33,0,.55,0,.67,0,.35,0,.66-.02.91-.02.26-.05.65-.09,1.17-.05.61-.08,1.01-.08,1.2h-1.59c0-.22.03-.67.08-1.33.04-.5.07-.91.08-1.23.01-.32.02-.73.02-1.24s-.05-.94-.14-1.3c-.09-.36-.22-.63-.39-.82-.15-.17-.36-.26-.63-.26h-.03c-.21,0-.4.08-.54.24-.52.51-.88,1.58-1.07,3.2-.07,1.06-.11,1.85-.11,2.39v.32l-1.6.05v-.46c0-.77.04-1.55.13-2.34.16-2.32.43-4.19.8-5.62l.19-.77,1.54.4-.3,1.22c.3-.14.61-.21.93-.21h.13c.72.02,1.3.28,1.76.79Z"/>
    <path class="cls-1" d="M65.01,56.02l1.59-.02v.03c0,.63-.25,1.84-.75,3.63-.5,1.79-.93,3.21-1.28,4.26-.35,1.05-.67,2-.96,2.84-.05.15-.15.27-.28.37s-.28.15-.44.16h-.03c-.34,0-.58-.16-.72-.48-.16-.35-.36-.83-.6-1.42s-.59-1.5-1.05-2.72c-.46-1.22-.84-2.44-1.15-3.65-.3-1.21-.46-2.21-.47-3h1.59c.01,1.61.79,4.36,2.32,8.24,1.5-4.48,2.24-7.22,2.24-8.22v-.02Z"/>
    <path class="cls-1" d="M69.27,56.42c-.04.58-.07,1.03-.08,1.36l-1.59-.05c.01-.38.04-.86.08-1.43l.03-.4,1.59.1-.03.42ZM69.21,58.92c-.01.56-.02,1.11-.02,1.67,0,1.95.06,3.94.18,5.94l-1.59.08c-.12-2.04-.18-4.05-.18-6.02,0-.57,0-1.13.02-1.7l1.59.03ZM69.26,69.7h-1.59v-1.49h1.59v1.49Z"/>
    <path class="cls-1" d="M84.22,55.74c.42,0,.77.17,1.07.52.29.35.57.96.83,1.83s.49,2,.69,3.36c.2,1.37.42,3.14.64,5.3l-1.59.16c-.47-4.67-.95-7.65-1.43-8.96-.14.53-.34,1.49-.59,2.87-.38,2.08-.69,3.45-.93,4.09-.24.65-.6.97-1.11.97-.42,0-.75-.24-1.01-.72s-.55-1.38-.88-2.71c-.04.04-.09.09-.14.13-.62.5-1.47.52-2.55.05-.14.67-.21,2.07-.21,4.18l-1.07.02-.51-.02c-.01-2.02.05-3.43.19-4.25.14-.81.4-1.34.78-1.57.33-.2.68-.21,1.04-.02.27.14.51.24.72.31.21.07.36.1.43.09.07-.01.13-.02.18-.03.07-.06.13-.18.16-.35.03-.17.01-.56-.06-1.17s-.24-1.38-.48-2.32c-.09-.33-.14-.56-.17-.7-.03-.13-.03-.27-.02-.41.02-.14.07-.26.17-.37.16-.21.38-.31.67-.3.43.02.75.31.98.87.22.56.56,1.8,1.01,3.71.32,1.34.56,2.29.72,2.87.13-.56.3-1.44.53-2.64.37-2.01.67-3.31.89-3.91.22-.6.57-.9,1.05-.9ZM76.23,66.85h-.8.8Z"/>
    <path class="cls-1" d="M95.42,66.11l.53.58-1.15,1.09-.54-.58s-.12-.14-.29-.34c-.65.29-1.31.43-1.97.43-.78,0-1.47-.18-2.08-.55-.46-.26-.82-.58-1.08-.99-.26-.4-.39-.81-.39-1.24,0-.94.27-1.64.8-2.11.6-.53,1.56-.8,2.88-.8.46,0,.96.03,1.51.1l.29.03c.1-.29.14-.54.14-.75,0-.04,0-.13-.02-.27-.01-.14-.1-.29-.27-.46-.11-.11-.26-.18-.47-.21-.21-.03-.37-.05-.49-.05-.28,0-.66.05-1.14.14-.48.09-1,.29-1.55.6l-.69.4-.78-1.38.69-.38c.72-.42,1.37-.68,1.97-.79.6-.11,1.08-.17,1.44-.17.29,0,.64.04,1.05.12.41.08.77.28,1.08.58.26.25.45.52.57.82.12.3.19.52.2.67.01.15.02.26.02.32,0,.2-.03.46-.1.77-.06.31-.13.56-.2.74-.07.18-.17.44-.3.77-.29.74-.43,1.25-.43,1.54v.05c.03.36.29.81.78,1.33ZM92.76,57.71c-.38,0-.74-.05-1.07-.16-.33-.11-.62-.26-.87-.46-.25-.2-.44-.44-.58-.73-.14-.29-.23-.61-.25-.96h1.31c.02.37.17.67.44.88.27.21.61.32,1.02.32s.74-.11,1.02-.32c.27-.21.42-.51.44-.88h1.31c-.01.35-.09.67-.24.96-.15.29-.35.53-.59.73s-.53.35-.86.46c-.33.11-.69.16-1.07.16ZM93.05,64.93v-.18c0-.42.1-.91.29-1.47-.5-.05-.95-.08-1.33-.08-.84,0-1.42.13-1.73.4-.17.15-.26.46-.26.93,0,.14.06.29.18.44.12.16.29.29.49.41.31.18.58.28.82.3s.38.02.45.02c.35,0,.75-.07,1.2-.22-.05-.19-.09-.37-.11-.54ZM94.8,53.68l-1.67,2.05-1.23-.99,1.65-2.05,1.25.99Z"/>
    <path class="cls-1" d="M105.32,57.92c.81,0,1.44.67,1.87,2s.85,3.54,1.25,6.64l-1.59.19c-.45-3.55-.9-5.81-1.35-6.79-.13.41-.31,1.12-.54,2.15-.13.57-.22.98-.29,1.24-.06.26-.15.58-.26.97-.11.38-.2.66-.28.82-.08.16-.18.33-.3.52-.12.19-.25.31-.38.37s-.29.09-.47.09c-.43,0-.77-.24-1.04-.72-.27-.48-.59-1.36-.98-2.64-.13.25-.29.45-.5.61-.49.38-1.13.46-1.91.22-.12.51-.17,1.54-.16,3.08h-1.59c-.01-1.43.04-2.5.16-3.2.12-.7.36-1.17.72-1.42.32-.21.67-.24,1.04-.08.41.17.66.21.77.13.26-.2.27-1.07.03-2.6-.06-.31-.09-.57-.07-.78s.09-.38.22-.52c.17-.19.38-.28.64-.27.42.02.74.27.97.75.23.48.55,1.44.97,2.89.29.97.51,1.69.67,2.15.12-.41.28-1.06.5-1.97.12-.53.21-.93.27-1.18.06-.25.15-.56.25-.92.1-.36.19-.62.26-.78s.17-.32.29-.5c.12-.18.24-.29.37-.35s.28-.09.45-.09Z"/>
  </g>
</svg>